<svg width="18" height="16" viewBox="0 0 18 16" fill="none" xmlns="http://www.w3.org/2000/svg">
<path d="M17.9926 7.98291C17.9926 8.54541 17.5238 8.98604 16.9926 8.98604H15.9926L16.0145 13.9923C16.0145 14.0767 16.0082 14.161 15.9988 14.2454V14.7517C15.9988 15.4423 15.4395 16.0017 14.7488 16.0017H14.2488C14.2145 16.0017 14.1801 16.0017 14.1457 15.9985C14.102 16.0017 14.0582 16.0017 14.0145 16.0017L12.9988 15.9985H12.2488C11.5582 15.9985 10.9988 15.4392 10.9988 14.7485V13.9985V11.9985C10.9988 11.4454 10.552 10.9985 9.99883 10.9985H7.99883C7.4457 10.9985 6.99883 11.4454 6.99883 11.9985V13.9985V14.7485C6.99883 15.4392 6.43945 15.9985 5.74883 15.9985H4.99883H4.00195C3.95508 15.9985 3.9082 15.9954 3.86133 15.9923C3.82383 15.9954 3.78633 15.9985 3.74883 15.9985H3.24883C2.5582 15.9985 1.99883 15.4392 1.99883 14.7485V11.2485C1.99883 11.2204 1.99883 11.1892 2.00195 11.161V8.98291H1.00195C0.439453 8.98291 0.00195312 8.54541 0.00195312 7.97978C0.00195312 7.69853 0.0957031 7.44853 0.314453 7.22978L8.32383 0.248535C8.54258 0.0297852 8.79258 -0.00146484 9.01133 -0.00146484C9.23008 -0.00146484 9.48008 0.0610352 9.66758 0.217285L17.6488 7.23291C17.8988 7.45166 18.0238 7.70166 17.9926 7.98291Z" fill="#F9FCFF"/>
</svg>
